<svg xmlns="http://www.w3.org/2000/svg" width="98" height="11" viewBox="0 0 98 11">
    <g fill="none" fill-rule="evenodd">
        <g fill="#777" opacity=".5">
            <path d="M.787 6.148h1.491c1.301 0 1.294-1.969 0-1.969H.788v1.969zm0 .725v1.511H0V3.461c.752 0 1.526-.006 2.278-.006 2.35 0 2.357 3.403 0 3.418H.788z"/>
            <path d="M7.075 7.765c1.224 0 1.737-.864 1.737-1.807 0-.907-.52-1.85-1.723-1.87-1.139 0-1.75.794-1.75 1.87.013.872.52 1.807 1.736 1.807m2.518-1.82c0 1.328-.809 2.545-2.518 2.545-1.709 0-2.517-1.245-2.517-2.539 0-1.498 1.048-2.581 2.531-2.581 1.681.008 2.504 1.245 2.504 2.574M15.446 8.391h-.697l-.654-1.736-.54-1.653-.542 1.66-.647 1.73h-.69L9.89 3.461h.88l1.251 3.79 1.273-3.79h.506l1.301 3.79 1.224-3.79h.879zM21.587 8.384H17.95V3.461h3.615v.767h-2.827v1.33h2.715v.73h-2.715v1.323h2.848zM23.388 4.18v1.785h1.498c.654 0 .942-.415.942-.879 0-.443-.288-.907-.935-.907h-1.505zm3.46 4.204h-.921l-1.498-1.702h-1.041v1.702H22.6v-4.93c.766 0 1.525.007 2.292.007 1.14 0 1.737.781 1.737 1.611 0 .704-.366 1.393-1.336 1.533l1.47 1.639.084.14zM31.308 8.384h-3.635V3.461h3.614v.767H28.46v1.33h2.715v.73H28.46v1.323h2.848zM33.102 7.625h1.083c1.203 0 1.71-.886 1.688-1.751-.02-.83-.527-1.66-1.688-1.66h-1.083v3.41zm1.083-4.164c1.681 0 2.448 1.203 2.47 2.42.027 1.245-.747 2.503-2.47 2.503h-1.863V3.461h1.863zM40.13 7.653h1.477c.435 0 1.04-.141 1.04-.683 0-.527-.583-.766-1.033-.766h-1.485v1.45zm0-2.152h1.484c.59 0 .886-.232.886-.619 0-.344-.303-.71-.893-.71h-1.478v1.329zm1.477-2.04c.935 0 1.673.43 1.673 1.407 0 .415-.218.788-.682.977.59.176.837.76.837 1.133 0 1.076-.858 1.406-1.828 1.406h-2.258V3.461h2.258zM45.912 5.635l1.4-2.174h.948v.036l-1.954 2.869v2.018h-.788V6.366l-1.899-2.87v-.035h.936z"/>
        </g>
        <g fill="#666">
            <path d="M58.466 3.245c-.725-.683-1.607-.867-2.275-.867-1.62 0-2.672.966-2.672 2.913 0 1.28.669 2.857 2.672 2.857.527 0 1.35-.1 1.92-.512V6.357h-2.517V4.154h4.862v4.421c-.626 1.264-2.36 1.947-4.278 1.947-3.938 0-5.43-2.63-5.43-5.23 0-2.602 1.705-5.274 5.443-5.274 1.38 0 2.601.285 3.91 1.606l-1.635 1.62zM62.05 10.252h2.8V.302h-2.8zM69.685 5.192h2.018c.782 0 1.18-.568 1.18-1.222s-.412-1.251-1.18-1.251h-2.018v2.473zm0 2.373v2.687H66.87V.302h4.832c2.672 0 3.994 1.678 3.994 3.625 0 2.032-1.336 3.61-3.994 3.638h-2.018zM83.346 10.266V6.5h-3.581v3.766H76.95V.317h2.814v3.78h3.581V.317h2.786v9.949zM92.29 3.714L94.436.303h3.17V.43l-3.951 5.856v3.965H90.84V6.286L87.06.416V.304h3.17z"/>
        </g>
    </g>
</svg>
